<svg xmlns="http://www.w3.org/2000/svg" width="23.459" height="23.459" viewBox="0 0 23.459 23.459"><defs><style>.a{fill:none;stroke:#fff;stroke-miterlimit:10;}.b{fill:#fff;}</style></defs><g transform="translate(0.5 0.5)"><path class="a" d="M742.212,117.218h0a11.23,11.23,0,0,1-11.23-11.229h0a11.23,11.23,0,0,1,11.23-11.229h0a11.229,11.229,0,0,1,11.229,11.229h0A11.229,11.229,0,0,1,742.212,117.218Z" transform="translate(-730.982 -94.759)"/><path class="b" d="M758.262,122.519H761v-6.845H762.9l.2-2.292H761v-1.305c0-.54.109-.754.631-.754h1.479v-2.379h-1.893c-2.034,0-2.951.9-2.951,2.611v1.827H756.84V115.7h1.422Z" transform="translate(-748.743 -104.502)"/></g></svg>