<svg xmlns="http://www.w3.org/2000/svg" width="23.459" height="23.459" viewBox="0 0 23.459 23.459"><defs><style>.a{fill:none;stroke:#fff;stroke-miterlimit:10;}.b{fill:#fff;}</style></defs><g transform="translate(0.5 0.5)"><path class="a" d="M652.738,117.218h0a11.23,11.23,0,0,1-11.23-11.229h0a11.23,11.23,0,0,1,11.23-11.229h0a11.23,11.23,0,0,1,11.229,11.229h0A11.23,11.23,0,0,1,652.738,117.218Z" transform="translate(-641.508 -94.759)"/><g transform="translate(5.072 5.072)"><path class="b" d="M663.865,112.067c1.644,0,1.839.006,2.488.036a3.406,3.406,0,0,1,1.143.212,2.039,2.039,0,0,1,1.169,1.169,3.413,3.413,0,0,1,.212,1.143c.029.649.036.844.036,2.488s-.007,1.839-.036,2.488a3.413,3.413,0,0,1-.212,1.143,2.039,2.039,0,0,1-1.169,1.169,3.4,3.4,0,0,1-1.143.212c-.649.029-.844.036-2.488.036s-1.839-.006-2.488-.036a3.4,3.4,0,0,1-1.143-.212,2.039,2.039,0,0,1-1.169-1.169,3.417,3.417,0,0,1-.212-1.143c-.029-.649-.036-.844-.036-2.488s.006-1.839.036-2.488a3.417,3.417,0,0,1,.212-1.143,2.039,2.039,0,0,1,1.169-1.169,3.4,3.4,0,0,1,1.143-.212c.649-.03.844-.036,2.488-.036m0-1.109c-1.672,0-1.882.007-2.539.037a4.532,4.532,0,0,0-1.495.286,3.149,3.149,0,0,0-1.8,1.8,4.516,4.516,0,0,0-.286,1.495c-.03.657-.037.866-.037,2.538s.007,1.882.037,2.539a4.517,4.517,0,0,0,.286,1.495,3.148,3.148,0,0,0,1.8,1.8,4.525,4.525,0,0,0,1.495.286c.657.03.866.037,2.539.037s1.882-.007,2.539-.037a4.525,4.525,0,0,0,1.494-.286,3.148,3.148,0,0,0,1.8-1.8,4.517,4.517,0,0,0,.286-1.495c.03-.657.037-.866.037-2.539s-.007-1.882-.037-2.538a4.516,4.516,0,0,0-.286-1.495,3.15,3.15,0,0,0-1.8-1.8,4.532,4.532,0,0,0-1.494-.286c-.657-.03-.867-.037-2.539-.037" transform="translate(-657.708 -110.958)"/><path class="b" d="M670.436,120.525a3.162,3.162,0,1,0,3.162,3.162,3.161,3.161,0,0,0-3.162-3.162m0,5.214a2.052,2.052,0,1,1,2.052-2.052,2.052,2.052,0,0,1-2.052,2.052" transform="translate(-664.279 -117.529)"/><path class="b" d="M686.986,118.5a.739.739,0,1,1-.739-.739.739.739,0,0,1,.739.739" transform="translate(-676.803 -115.634)"/></g></g></svg>