<svg xmlns="http://www.w3.org/2000/svg" width="23.459" height="23.459" viewBox="0 0 23.459 23.459"><defs><style>.a{fill:none;stroke:#fff;stroke-miterlimit:10;}.b{fill:#fff;}</style></defs><g transform="translate(0.5 0.5)"><path class="a" d="M831.686,117.218h0a11.23,11.23,0,0,1-11.23-11.229h0a11.23,11.23,0,0,1,11.23-11.229h0a11.229,11.229,0,0,1,11.229,11.229h0A11.229,11.229,0,0,1,831.686,117.218Z" transform="translate(-820.456 -94.759)"/><g transform="translate(5.914 4.972)"><rect class="b" width="2.324" height="7.508" transform="translate(0.223 3.754)"/><path class="b" d="M840.718,113.409a1.386,1.386,0,1,0-1.374-1.386A1.38,1.38,0,0,0,840.718,113.409Z" transform="translate(-839.344 -110.638)"/><path class="b" d="M854.454,125.692c0-1.056.486-1.684,1.416-1.684.855,0,1.265.6,1.265,1.684v3.941h2.313v-4.754c0-2.011-1.14-2.983-2.732-2.983a2.618,2.618,0,0,0-2.263,1.24v-1.011h-2.229v7.508h2.229Z" transform="translate(-848.192 -118.371)"/></g></g></svg>