<svg xmlns="http://www.w3.org/2000/svg" width="127.094" height="45.125" viewBox="0 0 127.094 45.125"><defs><style>.a{fill:#fff;}.b{fill:#a39076;}</style></defs><path class="a" d="M-1232.369,1054.493h8.331v-31.762a1.25,1.25,0,0,0-1.25-1.25h-13.276a1.25,1.25,0,0,0-1.25,1.25v42.458a1.25,1.25,0,0,0,1.25,1.25h6.194Z" transform="translate(1239.813 -1021.481)"/><path class="a" d="M-1186.461,1054.416V1050.8h5.176v-13.843h-5.176v-3.611h5.176v-10.619a1.25,1.25,0,0,0-1.25-1.25h-13.275a1.25,1.25,0,0,0-1.25,1.25v42.458a1.249,1.249,0,0,0,1.25,1.25h13.275a1.249,1.249,0,0,0,1.25-1.25v-10.773Z" transform="translate(1234.166 -1021.481)"/><path class="a" d="M-1165.084,1054.608v-21.066h5.176v-10.619a1.25,1.25,0,0,0-1.25-1.25h-13.275a1.25,1.25,0,0,0-1.25,1.25v42.458a1.25,1.25,0,0,0,1.25,1.25h13.275a1.25,1.25,0,0,0,1.25-1.25v-10.773Z" transform="translate(1231.342 -1021.506)"/><path class="a" d="M1.44,0H14.335a1.44,1.44,0,0,1,1.44,1.44V11.868a0,0,0,0,1,0,0H0a0,0,0,0,1,0,0V1.44A1.44,1.44,0,0,1,1.44,0Z" transform="translate(74.213 0.167)"/><path class="a" d="M-1118.4,1021.673h-13.276a1.25,1.25,0,0,0-1.25,1.25v23.11l8.331,8.575h-8.331v10.773a1.25,1.25,0,0,0,1.25,1.25h13.276a1.25,1.25,0,0,0,1.25-1.25v-23.187l-8.331-8.575h8.331v-10.7A1.25,1.25,0,0,0-1118.4,1021.673Z" transform="translate(1225.695 -1021.506)"/><path class="a" d="M-1203.911,1021.584h-12.72a1.806,1.806,0,0,0-1.805,1.806v41.9a1.25,1.25,0,0,0,1.25,1.25h14.525l-8.331-11.869h8.331v-31.839A1.25,1.25,0,0,0-1203.911,1021.584Z" transform="translate(1236.989 -1021.495)"/><path class="a" d="M-1097.027,1021.673H-1110.3a1.25,1.25,0,0,0-1.25,1.25v42.458a1.25,1.25,0,0,0,1.25,1.25h13.276a1.25,1.25,0,0,0,1.25-1.25v-42.458A1.25,1.25,0,0,0-1097.027,1021.673Z" transform="translate(1222.871 -1021.506)"/><path class="a" d="M-1154.306,1039.42v28.305a1.25,1.25,0,0,0,1.25,1.25h13.276a1.25,1.25,0,0,0,1.25-1.25V1039.42Z" transform="translate(1228.519 -1023.851)"/><g transform="translate(116.545 5.807)"><path class="b" d="M-1100.284,1066.441h-5.142v-3.5h.707v2.784h1.476v-2.344h.686v2.344h2.273Z" transform="translate(1105.517 -1032.764)"/><path class="b" d="M-1104.934,1066.01h1.981v-2.343h.181v2.343h2.274v.217h-4.638v-3h.2Z" transform="translate(1105.479 -1032.802)"/><path class="b" d="M-1100.291,1058.041l-1.175.427v2.033l1.175.426v.76l-5.184-1.883v-.64l5.184-1.875Zm-1.869.679-2.112.762,2.112.766Z" transform="translate(1105.524 -1032.018)"/><path class="b" d="M-1101.679,1058.346v2.385l1.175.427v.223l-4.68-1.7v-.286l4.68-1.693v.217Zm-.189.069-3.106,1.12,3.106,1.126Z" transform="translate(1105.485 -1032.073)"/><path class="b" d="M-1100.207,1053.424a2.024,2.024,0,0,1-1.089,1.994l-.177.1-.486-.535.267-.157a1.377,1.377,0,0,0,.785-1.4c0-.529-.245-1.1-.783-1.1-.382,0-.628.133-.828.832l-.223.835c-.251.864-.744,1.3-1.468,1.3-.828,0-1.322-.68-1.322-1.818a1.949,1.949,0,0,1,.991-1.822l.175-.11.5.519-.26.164a1.284,1.284,0,0,0-.7,1.249c0,.5.108,1.1.622,1.1.28,0,.591-.092.786-.776l.222-.854a1.506,1.506,0,0,1,1.51-1.336A1.614,1.614,0,0,1-1100.207,1053.424Z" transform="translate(1105.531 -1031.26)"/><path class="b" d="M-1101.386,1055.249l-.14-.154a1.629,1.629,0,0,0,.909-1.616c0-.734-.384-1.35-1.035-1.35-.574,0-.867.308-1.07,1.015l-.225.839c-.223.77-.621,1.112-1.224,1.112-.783,0-1.069-.734-1.069-1.567a1.7,1.7,0,0,1,.874-1.609l.14.147a1.532,1.532,0,0,0-.818,1.462c0,.861.307,1.35.874,1.35.532,0,.847-.321,1.029-.958l.224-.86c.181-.7.51-1.146,1.266-1.146.86,0,1.231.8,1.231,1.56A1.776,1.776,0,0,1-1101.386,1055.249Z" transform="translate(1105.493 -1031.308)"/><path class="b" d="M-1100.284,1045.869h-2.273v2.371h2.273v.72h-5.142v-.72h2.168v-2.371h-2.168v-.714h5.142Z" transform="translate(1105.517 -1030.415)"/><path class="b" d="M-1105.136,1045.446h4.638v.209h-2.274v2.875h2.274v.216h-4.638v-.216h2.168v-2.875h-2.168Z" transform="translate(1105.479 -1030.454)"/><rect class="b" width="5.142" height="0.72" transform="translate(0.091 11.882)"/><path class="b" d="M-1105.136,1042.37v-.217h4.638v.217Z" transform="translate(1105.479 -1030.019)"/><path class="b" d="M-1100.207,1036.846a1.947,1.947,0,0,1-2.162,2.154h-1.015a1.94,1.94,0,0,1-2.147-2.154,1.956,1.956,0,0,1,2.147-2.19h1.015A1.963,1.963,0,0,1-1100.207,1036.846Zm-4.624,0a1.264,1.264,0,0,0,1.448,1.427h1.015a1.27,1.27,0,0,0,1.462-1.427,1.282,1.282,0,0,0-1.462-1.455h-1.015A1.276,1.276,0,0,0-1104.831,1036.846Z" transform="translate(1105.531 -1029.029)"/><path class="b" d="M-1102.331,1038.787h-1.015a1.7,1.7,0,0,1-1.895-1.9,1.714,1.714,0,0,1,1.895-1.937h1.015a1.715,1.715,0,0,1,1.909,1.937A1.7,1.7,0,0,1-1102.331,1038.787Zm0-3.609h-1.015a1.518,1.518,0,0,0-1.7,1.706,1.507,1.507,0,0,0,1.7,1.679h1.015a1.511,1.511,0,0,0,1.713-1.679A1.522,1.522,0,0,0-1102.331,1035.178Z" transform="translate(1105.493 -1029.067)"/><path class="b" d="M-1100.284,1028.77l-3.67,2.41h3.67v.714h-5.142v-.6l3.661-2.409-3.661.006v-.714h5.142Z" transform="translate(1105.517 -1028.172)"/><path class="b" d="M-1105.136,1028.462h4.638v.21l-4.261,2.8h4.261v.21h-4.638v-.217l4.253-2.8-4.253.007Z" transform="translate(1105.479 -1028.21)"/></g></svg>